<svg width="1284" height="1050" viewBox="0 0 1284 1050" fill="none" xmlns="http://www.w3.org/2000/svg">
<rect x="434" y="874" width="415" height="176" rx="25" fill="#9EC8B9"/>
<path d="M479.636 985V938.455H495.909C499.152 938.455 501.826 939.015 503.932 940.136C506.038 941.242 507.606 942.735 508.636 944.614C509.667 946.477 510.182 948.545 510.182 950.818C510.182 952.818 509.826 954.47 509.114 955.773C508.417 957.076 507.492 958.106 506.341 958.864C505.205 959.621 503.97 960.182 502.636 960.545V961C504.061 961.091 505.492 961.591 506.932 962.5C508.371 963.409 509.576 964.712 510.545 966.409C511.515 968.106 512 970.182 512 972.636C512 974.97 511.47 977.068 510.409 978.932C509.348 980.795 507.674 982.273 505.386 983.364C503.098 984.455 500.121 985 496.455 985H479.636ZM485.273 980H496.455C500.136 980 502.75 979.288 504.295 977.864C505.856 976.424 506.636 974.682 506.636 972.636C506.636 971.061 506.235 969.606 505.432 968.273C504.629 966.924 503.485 965.848 502 965.045C500.515 964.227 498.758 963.818 496.727 963.818H485.273V980ZM485.273 958.909H495.727C497.424 958.909 498.955 958.576 500.318 957.909C501.697 957.242 502.788 956.303 503.591 955.091C504.409 953.879 504.818 952.455 504.818 950.818C504.818 948.773 504.106 947.038 502.682 945.614C501.258 944.174 499 943.455 495.909 943.455H485.273V958.909ZM535.17 985.727C531.807 985.727 528.905 984.985 526.466 983.5C524.042 982 522.17 979.909 520.852 977.227C519.549 974.53 518.898 971.394 518.898 967.818C518.898 964.242 519.549 961.091 520.852 958.364C522.17 955.621 524.004 953.485 526.352 951.955C528.716 950.409 531.473 949.636 534.625 949.636C536.443 949.636 538.239 949.939 540.011 950.545C541.784 951.152 543.398 952.136 544.852 953.5C546.307 954.848 547.466 956.636 548.33 958.864C549.193 961.091 549.625 963.833 549.625 967.091V969.364H522.716V964.727H544.17C544.17 962.758 543.777 961 542.989 959.455C542.216 957.909 541.11 956.689 539.67 955.795C538.246 954.902 536.564 954.455 534.625 954.455C532.489 954.455 530.64 954.985 529.08 956.045C527.534 957.091 526.345 958.455 525.511 960.136C524.678 961.818 524.261 963.621 524.261 965.545V968.636C524.261 971.273 524.716 973.508 525.625 975.341C526.549 977.159 527.83 978.545 529.466 979.5C531.102 980.439 533.004 980.909 535.17 980.909C536.58 980.909 537.852 980.712 538.989 980.318C540.14 979.909 541.133 979.303 541.966 978.5C542.799 977.682 543.443 976.667 543.898 975.455L549.08 976.909C548.534 978.667 547.617 980.212 546.33 981.545C545.042 982.864 543.451 983.894 541.557 984.636C539.663 985.364 537.534 985.727 535.17 985.727ZM572.966 950.091V954.636H554.875V950.091H572.966ZM560.148 941.727H565.511V975C565.511 976.515 565.731 977.652 566.17 978.409C566.625 979.152 567.201 979.652 567.898 979.909C568.61 980.152 569.36 980.273 570.148 980.273C570.739 980.273 571.223 980.242 571.602 980.182C571.981 980.106 572.284 980.045 572.511 980L573.602 984.818C573.239 984.955 572.731 985.091 572.08 985.227C571.428 985.379 570.602 985.455 569.602 985.455C568.087 985.455 566.602 985.129 565.148 984.477C563.708 983.826 562.511 982.833 561.557 981.5C560.617 980.167 560.148 978.485 560.148 976.455V941.727ZM581.034 985V950.091H586.216V955.364H586.58C587.216 953.636 588.367 952.235 590.034 951.159C591.701 950.083 593.58 949.545 595.67 949.545C596.064 949.545 596.557 949.553 597.148 949.568C597.739 949.583 598.186 949.606 598.489 949.636V955.091C598.307 955.045 597.89 954.977 597.239 954.886C596.602 954.78 595.928 954.727 595.216 954.727C593.519 954.727 592.004 955.083 590.67 955.795C589.352 956.492 588.307 957.462 587.534 958.705C586.777 959.932 586.398 961.333 586.398 962.909V985H581.034ZM604.847 985V950.091H610.21V985H604.847ZM607.574 944.273C606.528 944.273 605.627 943.917 604.869 943.205C604.127 942.492 603.756 941.636 603.756 940.636C603.756 939.636 604.127 938.78 604.869 938.068C605.627 937.356 606.528 937 607.574 937C608.619 937 609.513 937.356 610.256 938.068C611.013 938.78 611.392 939.636 611.392 940.636C611.392 941.636 611.013 942.492 610.256 943.205C609.513 943.917 608.619 944.273 607.574 944.273ZM634.67 985.727C631.307 985.727 628.405 984.985 625.966 983.5C623.542 982 621.67 979.909 620.352 977.227C619.049 974.53 618.398 971.394 618.398 967.818C618.398 964.242 619.049 961.091 620.352 958.364C621.67 955.621 623.504 953.485 625.852 951.955C628.216 950.409 630.973 949.636 634.125 949.636C635.943 949.636 637.739 949.939 639.511 950.545C641.284 951.152 642.898 952.136 644.352 953.5C645.807 954.848 646.966 956.636 647.83 958.864C648.693 961.091 649.125 963.833 649.125 967.091V969.364H622.216V964.727H643.67C643.67 962.758 643.277 961 642.489 959.455C641.716 957.909 640.61 956.689 639.17 955.795C637.746 954.902 636.064 954.455 634.125 954.455C631.989 954.455 630.14 954.985 628.58 956.045C627.034 957.091 625.845 958.455 625.011 960.136C624.178 961.818 623.761 963.621 623.761 965.545V968.636C623.761 971.273 624.216 973.508 625.125 975.341C626.049 977.159 627.33 978.545 628.966 979.5C630.602 980.439 632.504 980.909 634.67 980.909C636.08 980.909 637.352 980.712 638.489 980.318C639.64 979.909 640.633 979.303 641.466 978.5C642.299 977.682 642.943 976.667 643.398 975.455L648.58 976.909C648.034 978.667 647.117 980.212 645.83 981.545C644.542 982.864 642.951 983.894 641.057 984.636C639.163 985.364 637.034 985.727 634.67 985.727ZM658.011 985V938.455H663.375V955.636H663.83C664.223 955.03 664.769 954.258 665.466 953.318C666.178 952.364 667.193 951.515 668.511 950.773C669.845 950.015 671.648 949.636 673.92 949.636C676.86 949.636 679.451 950.371 681.693 951.841C683.936 953.311 685.686 955.394 686.943 958.091C688.201 960.788 688.83 963.97 688.83 967.636C688.83 971.333 688.201 974.538 686.943 977.25C685.686 979.947 683.943 982.038 681.716 983.523C679.489 984.992 676.92 985.727 674.011 985.727C671.769 985.727 669.973 985.356 668.625 984.614C667.277 983.856 666.239 983 665.511 982.045C664.784 981.076 664.223 980.273 663.83 979.636H663.193V985H658.011ZM663.284 967.545C663.284 970.182 663.67 972.508 664.443 974.523C665.216 976.523 666.345 978.091 667.83 979.227C669.314 980.348 671.133 980.909 673.284 980.909C675.527 980.909 677.398 980.318 678.898 979.136C680.413 977.939 681.549 976.333 682.307 974.318C683.08 972.288 683.466 970.03 683.466 967.545C683.466 965.091 683.087 962.879 682.33 960.909C681.587 958.924 680.458 957.356 678.943 956.205C677.443 955.038 675.557 954.455 673.284 954.455C671.102 954.455 669.269 955.008 667.784 956.114C666.299 957.205 665.178 958.735 664.42 960.705C663.663 962.659 663.284 964.939 663.284 967.545ZM721.761 957.909L716.943 959.273C716.64 958.47 716.193 957.689 715.602 956.932C715.027 956.159 714.239 955.523 713.239 955.023C712.239 954.523 710.958 954.273 709.398 954.273C707.261 954.273 705.481 954.765 704.057 955.75C702.648 956.72 701.943 957.955 701.943 959.455C701.943 960.788 702.428 961.841 703.398 962.614C704.367 963.386 705.883 964.03 707.943 964.545L713.125 965.818C716.246 966.576 718.572 967.735 720.102 969.295C721.633 970.841 722.398 972.833 722.398 975.273C722.398 977.273 721.822 979.061 720.67 980.636C719.534 982.212 717.943 983.455 715.898 984.364C713.852 985.273 711.473 985.727 708.761 985.727C705.201 985.727 702.254 984.955 699.92 983.409C697.587 981.864 696.11 979.606 695.489 976.636L700.58 975.364C701.064 977.242 701.981 978.652 703.33 979.591C704.693 980.53 706.473 981 708.67 981C711.17 981 713.155 980.47 714.625 979.409C716.11 978.333 716.852 977.045 716.852 975.545C716.852 974.333 716.428 973.318 715.58 972.5C714.731 971.667 713.428 971.045 711.67 970.636L705.852 969.273C702.655 968.515 700.307 967.341 698.807 965.75C697.322 964.144 696.58 962.136 696.58 959.727C696.58 957.758 697.133 956.015 698.239 954.5C699.36 952.985 700.883 951.795 702.807 950.932C704.746 950.068 706.943 949.636 709.398 949.636C712.852 949.636 715.564 950.394 717.534 951.909C719.519 953.424 720.928 955.424 721.761 957.909ZM730.472 985V950.091H735.653V955.364H736.017C736.653 953.636 737.805 952.235 739.472 951.159C741.138 950.083 743.017 949.545 745.108 949.545C745.502 949.545 745.994 949.553 746.585 949.568C747.176 949.583 747.623 949.606 747.926 949.636V955.091C747.744 955.045 747.328 954.977 746.676 954.886C746.04 954.78 745.366 954.727 744.653 954.727C742.956 954.727 741.441 955.083 740.108 955.795C738.79 956.492 737.744 957.462 736.972 958.705C736.214 959.932 735.835 961.333 735.835 962.909V985H730.472ZM764.557 985.818C762.345 985.818 760.337 985.402 758.534 984.568C756.731 983.72 755.299 982.5 754.239 980.909C753.178 979.303 752.648 977.364 752.648 975.091C752.648 973.091 753.042 971.47 753.83 970.227C754.617 968.97 755.67 967.985 756.989 967.273C758.307 966.561 759.761 966.03 761.352 965.682C762.958 965.318 764.572 965.03 766.193 964.818C768.314 964.545 770.034 964.341 771.352 964.205C772.686 964.053 773.655 963.803 774.261 963.455C774.883 963.106 775.193 962.5 775.193 961.636V961.455C775.193 959.212 774.58 957.47 773.352 956.227C772.14 954.985 770.299 954.364 767.83 954.364C765.269 954.364 763.261 954.924 761.807 956.045C760.352 957.167 759.33 958.364 758.739 959.636L753.648 957.818C754.557 955.697 755.769 954.045 757.284 952.864C758.814 951.667 760.481 950.833 762.284 950.364C764.102 949.879 765.89 949.636 767.648 949.636C768.769 949.636 770.057 949.773 771.511 950.045C772.981 950.303 774.398 950.841 775.761 951.659C777.14 952.477 778.284 953.712 779.193 955.364C780.102 957.015 780.557 959.227 780.557 962V985H775.193V980.273H774.92C774.557 981.03 773.951 981.841 773.102 982.705C772.254 983.568 771.125 984.303 769.716 984.909C768.307 985.515 766.587 985.818 764.557 985.818ZM765.375 981C767.496 981 769.284 980.583 770.739 979.75C772.208 978.917 773.314 977.841 774.057 976.523C774.814 975.205 775.193 973.818 775.193 972.364V967.455C774.966 967.727 774.466 967.977 773.693 968.205C772.936 968.417 772.057 968.606 771.057 968.773C770.072 968.924 769.11 969.061 768.17 969.182C767.246 969.288 766.496 969.379 765.92 969.455C764.527 969.636 763.223 969.932 762.011 970.341C760.814 970.735 759.845 971.333 759.102 972.136C758.375 972.924 758.011 974 758.011 975.364C758.011 977.227 758.701 978.636 760.08 979.591C761.473 980.53 763.239 981 765.375 981ZM805.528 950.091V954.636H787.438V950.091H805.528ZM792.71 941.727H798.074V975C798.074 976.515 798.294 977.652 798.733 978.409C799.188 979.152 799.763 979.652 800.46 979.909C801.172 980.152 801.922 980.273 802.71 980.273C803.301 980.273 803.786 980.242 804.165 980.182C804.544 980.106 804.847 980.045 805.074 980L806.165 984.818C805.801 984.955 805.294 985.091 804.642 985.227C803.991 985.379 803.165 985.455 802.165 985.455C800.65 985.455 799.165 985.129 797.71 984.477C796.271 983.826 795.074 982.833 794.119 981.5C793.18 980.167 792.71 978.485 792.71 976.455V941.727Z" fill="white"/>
<rect x="330" width="623" height="176" rx="25" fill="#BD403C"/>
<path d="M407.455 79C406.955 77.4697 406.295 76.0985 405.477 74.8864C404.674 73.6591 403.712 72.6136 402.591 71.75C401.485 70.8864 400.227 70.2273 398.818 69.7727C397.409 69.3182 395.864 69.0909 394.182 69.0909C391.424 69.0909 388.917 69.803 386.659 71.2273C384.402 72.6515 382.606 74.75 381.273 77.5227C379.939 80.2955 379.273 83.697 379.273 87.7273C379.273 91.7576 379.947 95.1591 381.295 97.9318C382.644 100.705 384.47 102.803 386.773 104.227C389.076 105.652 391.667 106.364 394.545 106.364C397.212 106.364 399.561 105.795 401.591 104.659C403.636 103.508 405.227 101.886 406.364 99.7955C407.515 97.6894 408.091 95.2121 408.091 92.3636L409.818 92.7273H395.818V87.7273H413.545V92.7273C413.545 96.5606 412.727 99.8939 411.091 102.727C409.47 105.561 407.227 107.758 404.364 109.318C401.515 110.864 398.242 111.636 394.545 111.636C390.424 111.636 386.803 110.667 383.682 108.727C380.576 106.788 378.152 104.03 376.409 100.455C374.682 96.8788 373.818 92.6364 373.818 87.7273C373.818 84.0455 374.311 80.7348 375.295 77.7955C376.295 74.8409 377.705 72.3258 379.523 70.25C381.341 68.1742 383.492 66.5833 385.977 65.4773C388.462 64.3712 391.197 63.8182 394.182 63.8182C396.636 63.8182 398.924 64.1894 401.045 64.9318C403.182 65.6591 405.083 66.697 406.75 68.0455C408.432 69.3788 409.833 70.9773 410.955 72.8409C412.076 74.6894 412.848 76.7424 413.273 79H407.455ZM437.108 111.727C433.744 111.727 430.843 110.985 428.403 109.5C425.979 108 424.108 105.909 422.79 103.227C421.487 100.53 420.835 97.3939 420.835 93.8182C420.835 90.2424 421.487 87.0909 422.79 84.3636C424.108 81.6212 425.941 79.4848 428.29 77.9545C430.653 76.4091 433.411 75.6364 436.562 75.6364C438.381 75.6364 440.176 75.9394 441.949 76.5455C443.722 77.1515 445.335 78.1364 446.79 79.5C448.244 80.8485 449.403 82.6364 450.267 84.8636C451.131 87.0909 451.562 89.8333 451.562 93.0909V95.3636H424.653V90.7273H446.108C446.108 88.7576 445.714 87 444.926 85.4545C444.153 83.9091 443.047 82.6894 441.608 81.7955C440.184 80.9015 438.502 80.4545 436.562 80.4545C434.426 80.4545 432.578 80.9848 431.017 82.0455C429.472 83.0909 428.282 84.4545 427.449 86.1364C426.616 87.8182 426.199 89.6212 426.199 91.5455V94.6364C426.199 97.2727 426.653 99.5076 427.562 101.341C428.487 103.159 429.767 104.545 431.403 105.5C433.04 106.439 434.941 106.909 437.108 106.909C438.517 106.909 439.79 106.712 440.926 106.318C442.078 105.909 443.07 105.303 443.903 104.5C444.737 103.682 445.381 102.667 445.835 101.455L451.017 102.909C450.472 104.667 449.555 106.212 448.267 107.545C446.979 108.864 445.388 109.894 443.494 110.636C441.6 111.364 439.472 111.727 437.108 111.727ZM484.449 83.9091L479.631 85.2727C479.328 84.4697 478.881 83.6894 478.29 82.9318C477.714 82.1591 476.926 81.5227 475.926 81.0227C474.926 80.5227 473.646 80.2727 472.085 80.2727C469.949 80.2727 468.169 80.7652 466.744 81.75C465.335 82.7197 464.631 83.9545 464.631 85.4545C464.631 86.7879 465.116 87.8409 466.085 88.6136C467.055 89.3864 468.57 90.0303 470.631 90.5455L475.812 91.8182C478.934 92.5758 481.259 93.7348 482.79 95.2955C484.32 96.8409 485.085 98.8333 485.085 101.273C485.085 103.273 484.509 105.061 483.358 106.636C482.222 108.212 480.631 109.455 478.585 110.364C476.54 111.273 474.161 111.727 471.449 111.727C467.888 111.727 464.941 110.955 462.608 109.409C460.275 107.864 458.797 105.606 458.176 102.636L463.267 101.364C463.752 103.242 464.669 104.652 466.017 105.591C467.381 106.53 469.161 107 471.358 107C473.858 107 475.843 106.47 477.312 105.409C478.797 104.333 479.54 103.045 479.54 101.545C479.54 100.333 479.116 99.3182 478.267 98.5C477.419 97.6667 476.116 97.0455 474.358 96.6364L468.54 95.2727C465.343 94.5152 462.994 93.3409 461.494 91.75C460.009 90.1439 459.267 88.1364 459.267 85.7273C459.267 83.7576 459.82 82.0152 460.926 80.5C462.047 78.9848 463.57 77.7955 465.494 76.9318C467.434 76.0682 469.631 75.6364 472.085 75.6364C475.54 75.6364 478.252 76.3939 480.222 77.9091C482.206 79.4242 483.616 81.4242 484.449 83.9091ZM507.341 111.727C504.068 111.727 501.25 110.955 498.886 109.409C496.523 107.864 494.705 105.735 493.432 103.023C492.159 100.311 491.523 97.2121 491.523 93.7273C491.523 90.1818 492.174 87.053 493.477 84.3409C494.795 81.6136 496.629 79.4848 498.977 77.9545C501.341 76.4091 504.098 75.6364 507.25 75.6364C509.705 75.6364 511.917 76.0909 513.886 77C515.856 77.9091 517.47 79.1818 518.727 80.8182C519.985 82.4545 520.765 84.3636 521.068 86.5455H515.705C515.295 84.9545 514.386 83.5455 512.977 82.3182C511.583 81.0758 509.705 80.4545 507.341 80.4545C505.25 80.4545 503.417 81 501.841 82.0909C500.28 83.1667 499.061 84.6894 498.182 86.6591C497.318 88.6136 496.886 90.9091 496.886 93.5455C496.886 96.2424 497.311 98.5909 498.159 100.591C499.023 102.591 500.235 104.144 501.795 105.25C503.371 106.356 505.22 106.909 507.341 106.909C508.735 106.909 510 106.667 511.136 106.182C512.273 105.697 513.235 105 514.023 104.091C514.811 103.182 515.371 102.091 515.705 100.818H521.068C520.765 102.879 520.015 104.735 518.818 106.386C517.636 108.023 516.068 109.326 514.114 110.295C512.174 111.25 509.917 111.727 507.341 111.727ZM534.273 90V111H528.909V64.4545H534.273V81.5455H534.727C535.545 79.7424 536.773 78.3106 538.409 77.25C540.061 76.1742 542.258 75.6364 545 75.6364C547.379 75.6364 549.462 76.1136 551.25 77.0682C553.038 78.0076 554.424 79.4545 555.409 81.4091C556.409 83.3485 556.909 85.8182 556.909 88.8182V111H551.545V89.1818C551.545 86.4091 550.826 84.2652 549.386 82.75C547.962 81.2197 545.985 80.4545 543.455 80.4545C541.697 80.4545 540.121 80.8258 538.727 81.5682C537.348 82.3106 536.258 83.3939 535.455 84.8182C534.667 86.2424 534.273 87.9697 534.273 90ZM576.994 111.818C574.782 111.818 572.775 111.402 570.972 110.568C569.169 109.72 567.737 108.5 566.676 106.909C565.616 105.303 565.085 103.364 565.085 101.091C565.085 99.0909 565.479 97.4697 566.267 96.2273C567.055 94.9697 568.108 93.9848 569.426 93.2727C570.744 92.5606 572.199 92.0303 573.79 91.6818C575.396 91.3182 577.009 91.0303 578.631 90.8182C580.752 90.5455 582.472 90.3409 583.79 90.2045C585.123 90.053 586.093 89.803 586.699 89.4545C587.32 89.1061 587.631 88.5 587.631 87.6364V87.4545C587.631 85.2121 587.017 83.4697 585.79 82.2273C584.578 80.9848 582.737 80.3636 580.267 80.3636C577.706 80.3636 575.699 80.9242 574.244 82.0455C572.79 83.1667 571.767 84.3636 571.176 85.6364L566.085 83.8182C566.994 81.697 568.206 80.0455 569.722 78.8636C571.252 77.6667 572.919 76.8333 574.722 76.3636C576.54 75.8788 578.328 75.6364 580.085 75.6364C581.206 75.6364 582.494 75.7727 583.949 76.0455C585.419 76.303 586.835 76.8409 588.199 77.6591C589.578 78.4773 590.722 79.7121 591.631 81.3636C592.54 83.0152 592.994 85.2273 592.994 88V111H587.631V106.273H587.358C586.994 107.03 586.388 107.841 585.54 108.705C584.691 109.568 583.563 110.303 582.153 110.909C580.744 111.515 579.025 111.818 576.994 111.818ZM577.812 107C579.934 107 581.722 106.583 583.176 105.75C584.646 104.917 585.752 103.841 586.494 102.523C587.252 101.205 587.631 99.8182 587.631 98.3636V93.4545C587.403 93.7273 586.903 93.9773 586.131 94.2045C585.373 94.4167 584.494 94.6061 583.494 94.7727C582.509 94.9242 581.547 95.0606 580.608 95.1818C579.684 95.2879 578.934 95.3788 578.358 95.4545C576.964 95.6364 575.661 95.9318 574.449 96.3409C573.252 96.7348 572.282 97.3333 571.54 98.1364C570.813 98.9242 570.449 100 570.449 101.364C570.449 103.227 571.138 104.636 572.517 105.591C573.911 106.53 575.676 107 577.812 107ZM573.903 70.2727C572.949 70.2727 572.1 69.9091 571.358 69.1818C570.631 68.4394 570.267 67.5909 570.267 66.6364C570.267 65.5909 570.631 64.7273 571.358 64.0455C572.1 63.3485 572.949 63 573.903 63C574.949 63 575.813 63.3485 576.494 64.0455C577.191 64.7273 577.54 65.5909 577.54 66.6364C577.54 67.5909 577.191 68.4394 576.494 69.1818C575.813 69.9091 574.949 70.2727 573.903 70.2727ZM586.994 70.2727C586.04 70.2727 585.191 69.9091 584.449 69.1818C583.722 68.4394 583.358 67.5909 583.358 66.6364C583.358 65.5909 583.722 64.7273 584.449 64.0455C585.191 63.3485 586.04 63 586.994 63C588.04 63 588.903 63.3485 589.585 64.0455C590.282 64.7273 590.631 65.5909 590.631 66.6364C590.631 67.5909 590.282 68.4394 589.585 69.1818C588.903 69.9091 588.04 70.2727 586.994 70.2727ZM618.33 76.0909V80.6364H599.511V76.0909H618.33ZM605.148 111V71.2727C605.148 69.2727 605.617 67.6061 606.557 66.2727C607.496 64.9394 608.716 63.9394 610.216 63.2727C611.716 62.6061 613.299 62.2727 614.966 62.2727C616.284 62.2727 617.36 62.3788 618.193 62.5909C619.027 62.803 619.648 63 620.057 63.1818L618.511 67.8182C618.239 67.7273 617.86 67.6136 617.375 67.4773C616.905 67.3409 616.284 67.2727 615.511 67.2727C613.739 67.2727 612.458 67.7197 611.67 68.6136C610.898 69.5076 610.511 70.8182 610.511 72.5455V111H605.148ZM641.028 76.0909V80.6364H622.938V76.0909H641.028ZM628.21 67.7273H633.574V101C633.574 102.515 633.794 103.652 634.233 104.409C634.688 105.152 635.263 105.652 635.96 105.909C636.672 106.152 637.422 106.273 638.21 106.273C638.801 106.273 639.286 106.242 639.665 106.182C640.044 106.106 640.347 106.045 640.574 106L641.665 110.818C641.301 110.955 640.794 111.091 640.142 111.227C639.491 111.379 638.665 111.455 637.665 111.455C636.15 111.455 634.665 111.129 633.21 110.477C631.771 109.826 630.574 108.833 629.619 107.5C628.68 106.167 628.21 104.485 628.21 102.455V67.7273ZM673.199 83.9091L668.381 85.2727C668.078 84.4697 667.631 83.6894 667.04 82.9318C666.464 82.1591 665.676 81.5227 664.676 81.0227C663.676 80.5227 662.396 80.2727 660.835 80.2727C658.699 80.2727 656.919 80.7652 655.494 81.75C654.085 82.7197 653.381 83.9545 653.381 85.4545C653.381 86.7879 653.866 87.8409 654.835 88.6136C655.805 89.3864 657.32 90.0303 659.381 90.5455L664.562 91.8182C667.684 92.5758 670.009 93.7348 671.54 95.2955C673.07 96.8409 673.835 98.8333 673.835 101.273C673.835 103.273 673.259 105.061 672.108 106.636C670.972 108.212 669.381 109.455 667.335 110.364C665.29 111.273 662.911 111.727 660.199 111.727C656.638 111.727 653.691 110.955 651.358 109.409C649.025 107.864 647.547 105.606 646.926 102.636L652.017 101.364C652.502 103.242 653.419 104.652 654.767 105.591C656.131 106.53 657.911 107 660.108 107C662.608 107 664.593 106.47 666.062 105.409C667.547 104.333 668.29 103.045 668.29 101.545C668.29 100.333 667.866 99.3182 667.017 98.5C666.169 97.6667 664.866 97.0455 663.108 96.6364L657.29 95.2727C654.093 94.5152 651.744 93.3409 650.244 91.75C648.759 90.1439 648.017 88.1364 648.017 85.7273C648.017 83.7576 648.57 82.0152 649.676 80.5C650.797 78.9848 652.32 77.7955 654.244 76.9318C656.184 76.0682 658.381 75.6364 660.835 75.6364C664.29 75.6364 667.002 76.3939 668.972 77.9091C670.956 79.4242 672.366 81.4242 673.199 83.9091ZM697.455 76.0909V80.6364H678.636V76.0909H697.455ZM684.273 111V71.2727C684.273 69.2727 684.742 67.6061 685.682 66.2727C686.621 64.9394 687.841 63.9394 689.341 63.2727C690.841 62.6061 692.424 62.2727 694.091 62.2727C695.409 62.2727 696.485 62.3788 697.318 62.5909C698.152 62.803 698.773 63 699.182 63.1818L697.636 67.8182C697.364 67.7273 696.985 67.6136 696.5 67.4773C696.03 67.3409 695.409 67.2727 694.636 67.2727C692.864 67.2727 691.583 67.7197 690.795 68.6136C690.023 69.5076 689.636 70.8182 689.636 72.5455V111H684.273ZM726.972 96.7273V76.0909H732.335V111H726.972V105.091H726.608C725.79 106.864 724.517 108.371 722.79 109.614C721.063 110.841 718.881 111.455 716.244 111.455C714.062 111.455 712.123 110.977 710.426 110.023C708.729 109.053 707.396 107.598 706.426 105.659C705.456 103.705 704.972 101.242 704.972 98.2727V76.0909H710.335V97.9091C710.335 100.455 711.047 102.485 712.472 104C713.911 105.515 715.744 106.273 717.972 106.273C719.305 106.273 720.661 105.932 722.04 105.25C723.434 104.568 724.6 103.523 725.54 102.114C726.494 100.705 726.972 98.9091 726.972 96.7273ZM712.153 70.2727C711.199 70.2727 710.35 69.9091 709.608 69.1818C708.881 68.4394 708.517 67.5909 708.517 66.6364C708.517 65.5909 708.881 64.7273 709.608 64.0455C710.35 63.3485 711.199 63 712.153 63C713.199 63 714.063 63.3485 714.744 64.0455C715.441 64.7273 715.79 65.5909 715.79 66.6364C715.79 67.5909 715.441 68.4394 714.744 69.1818C714.063 69.9091 713.199 70.2727 712.153 70.2727ZM725.244 70.2727C724.29 70.2727 723.441 69.9091 722.699 69.1818C721.972 68.4394 721.608 67.5909 721.608 66.6364C721.608 65.5909 721.972 64.7273 722.699 64.0455C723.441 63.3485 724.29 63 725.244 63C726.29 63 727.153 63.3485 727.835 64.0455C728.532 64.7273 728.881 65.5909 728.881 66.6364C728.881 67.5909 728.532 68.4394 727.835 69.1818C727.153 69.9091 726.29 70.2727 725.244 70.2727ZM747.523 90V111H742.159V64.4545H747.523V81.5455H747.977C748.795 79.7424 750.023 78.3106 751.659 77.25C753.311 76.1742 755.508 75.6364 758.25 75.6364C760.629 75.6364 762.712 76.1136 764.5 77.0682C766.288 78.0076 767.674 79.4545 768.659 81.4091C769.659 83.3485 770.159 85.8182 770.159 88.8182V111H764.795V89.1818C764.795 86.4091 764.076 84.2652 762.636 82.75C761.212 81.2197 759.235 80.4545 756.705 80.4545C754.947 80.4545 753.371 80.8258 751.977 81.5682C750.598 82.3106 749.508 83.3939 748.705 84.8182C747.917 86.2424 747.523 87.9697 747.523 90ZM779.972 111V76.0909H785.153V81.3636H785.517C786.153 79.6364 787.305 78.2348 788.972 77.1591C790.638 76.0833 792.517 75.5455 794.608 75.5455C795.002 75.5455 795.494 75.553 796.085 75.5682C796.676 75.5833 797.123 75.6061 797.426 75.6364V81.0909C797.244 81.0455 796.828 80.9773 796.176 80.8864C795.54 80.7803 794.866 80.7273 794.153 80.7273C792.456 80.7273 790.941 81.0833 789.608 81.7955C788.29 82.4924 787.244 83.4621 786.472 84.7045C785.714 85.9318 785.335 87.3333 785.335 88.9091V111H779.972ZM825.784 96.7273V76.0909H831.148V111H825.784V105.091H825.42C824.602 106.864 823.33 108.371 821.602 109.614C819.875 110.841 817.693 111.455 815.057 111.455C812.875 111.455 810.936 110.977 809.239 110.023C807.542 109.053 806.208 107.598 805.239 105.659C804.269 103.705 803.784 101.242 803.784 98.2727V76.0909H809.148V97.9091C809.148 100.455 809.86 102.485 811.284 104C812.723 105.515 814.557 106.273 816.784 106.273C818.117 106.273 819.473 105.932 820.852 105.25C822.246 104.568 823.413 103.523 824.352 102.114C825.307 100.705 825.784 98.9091 825.784 96.7273ZM846.335 90V111H840.972V76.0909H846.153V81.5455H846.608C847.426 79.7727 848.669 78.3485 850.335 77.2727C852.002 76.1818 854.153 75.6364 856.79 75.6364C859.153 75.6364 861.222 76.1212 862.994 77.0909C864.767 78.0455 866.146 79.5 867.131 81.4545C868.116 83.3939 868.608 85.8485 868.608 88.8182V111H863.244V89.1818C863.244 86.4394 862.532 84.303 861.108 82.7727C859.684 81.2273 857.729 80.4545 855.244 80.4545C853.532 80.4545 852.002 80.8258 850.653 81.5682C849.32 82.3106 848.267 83.3939 847.494 84.8182C846.722 86.2424 846.335 87.9697 846.335 90ZM892.5 124.818C889.909 124.818 887.682 124.485 885.818 123.818C883.955 123.167 882.402 122.303 881.159 121.227C879.932 120.167 878.955 119.03 878.227 117.818L882.5 114.818C882.985 115.455 883.598 116.182 884.341 117C885.083 117.833 886.098 118.553 887.386 119.159C888.689 119.78 890.394 120.091 892.5 120.091C895.318 120.091 897.644 119.409 899.477 118.045C901.311 116.682 902.227 114.545 902.227 111.636V104.545H901.773C901.379 105.182 900.818 105.97 900.091 106.909C899.379 107.833 898.348 108.659 897 109.386C895.667 110.098 893.864 110.455 891.591 110.455C888.773 110.455 886.242 109.788 884 108.455C881.773 107.121 880.008 105.182 878.705 102.636C877.417 100.091 876.773 97 876.773 93.3636C876.773 89.7879 877.402 86.6742 878.659 84.0227C879.917 81.3561 881.667 79.2955 883.909 77.8409C886.152 76.3712 888.742 75.6364 891.682 75.6364C893.955 75.6364 895.758 76.0152 897.091 76.7727C898.439 77.5152 899.47 78.3636 900.182 79.3182C900.909 80.2576 901.47 81.0303 901.864 81.6364H902.409V76.0909H907.591V112C907.591 115 906.909 117.439 905.545 119.318C904.197 121.212 902.379 122.598 900.091 123.477C897.818 124.371 895.288 124.818 892.5 124.818ZM892.318 105.636C894.47 105.636 896.288 105.144 897.773 104.159C899.258 103.174 900.386 101.758 901.159 99.9091C901.932 98.0606 902.318 95.8485 902.318 93.2727C902.318 90.7576 901.939 88.5379 901.182 86.6136C900.424 84.6894 899.303 83.1818 897.818 82.0909C896.333 81 894.5 80.4545 892.318 80.4545C890.045 80.4545 888.152 81.0303 886.636 82.1818C885.136 83.3333 884.008 84.8788 883.25 86.8182C882.508 88.7576 882.136 90.9091 882.136 93.2727C882.136 95.697 882.515 97.8409 883.273 99.7045C884.045 101.553 885.182 103.008 886.682 104.068C888.197 105.114 890.076 105.636 892.318 105.636Z" fill="white"/>
<rect y="437" width="1284" height="176" rx="25" fill="#092635"/>
<path d="M69.6364 520.909L64.8182 522.273C64.5152 521.47 64.0682 520.689 63.4773 519.932C62.9015 519.159 62.1136 518.523 61.1136 518.023C60.1136 517.523 58.8333 517.273 57.2727 517.273C55.1364 517.273 53.3561 517.765 51.9318 518.75C50.5227 519.72 49.8182 520.955 49.8182 522.455C49.8182 523.788 50.303 524.841 51.2727 525.614C52.2424 526.386 53.7576 527.03 55.8182 527.545L61 528.818C64.1212 529.576 66.447 530.735 67.9773 532.295C69.5076 533.841 70.2727 535.833 70.2727 538.273C70.2727 540.273 69.697 542.061 68.5455 543.636C67.4091 545.212 65.8182 546.455 63.7727 547.364C61.7273 548.273 59.3485 548.727 56.6364 548.727C53.0758 548.727 50.1288 547.955 47.7955 546.409C45.4621 544.864 43.9848 542.606 43.3636 539.636L48.4545 538.364C48.9394 540.242 49.8561 541.652 51.2045 542.591C52.5682 543.53 54.3485 544 56.5455 544C59.0455 544 61.0303 543.47 62.5 542.409C63.9848 541.333 64.7273 540.045 64.7273 538.545C64.7273 537.333 64.303 536.318 63.4545 535.5C62.6061 534.667 61.303 534.045 59.5455 533.636L53.7273 532.273C50.5303 531.515 48.1818 530.341 46.6818 528.75C45.197 527.144 44.4545 525.136 44.4545 522.727C44.4545 520.758 45.0076 519.015 46.1136 517.5C47.2348 515.985 48.7576 514.795 50.6818 513.932C52.6212 513.068 54.8182 512.636 57.2727 512.636C60.7273 512.636 63.4394 513.394 65.4091 514.909C67.3939 516.424 68.803 518.424 69.6364 520.909ZM92.5284 548.727C89.3769 548.727 86.6117 547.977 84.233 546.477C81.8693 544.977 80.0208 542.879 78.6875 540.182C77.3693 537.485 76.7102 534.333 76.7102 530.727C76.7102 527.091 77.3693 523.917 78.6875 521.205C80.0208 518.492 81.8693 516.386 84.233 514.886C86.6117 513.386 89.3769 512.636 92.5284 512.636C95.6799 512.636 98.4375 513.386 100.801 514.886C103.18 516.386 105.028 518.492 106.347 521.205C107.68 523.917 108.347 527.091 108.347 530.727C108.347 534.333 107.68 537.485 106.347 540.182C105.028 542.879 103.18 544.977 100.801 546.477C98.4375 547.977 95.6799 548.727 92.5284 548.727ZM92.5284 543.909C94.9223 543.909 96.892 543.295 98.4375 542.068C99.983 540.841 101.127 539.227 101.869 537.227C102.612 535.227 102.983 533.061 102.983 530.727C102.983 528.394 102.612 526.22 101.869 524.205C101.127 522.189 99.983 520.561 98.4375 519.318C96.892 518.076 94.9223 517.455 92.5284 517.455C90.1345 517.455 88.1648 518.076 86.6193 519.318C85.0739 520.561 83.9299 522.189 83.1875 524.205C82.4451 526.22 82.0739 528.394 82.0739 530.727C82.0739 533.061 82.4451 535.227 83.1875 537.227C83.9299 539.227 85.0739 540.841 86.6193 542.068C88.1648 543.295 90.1345 543.909 92.5284 543.909ZM115.534 548V543.909L135.352 518.455V518.091H116.17V513.091H142.261V517.364L122.989 542.636V543H142.898V548H115.534ZM151.159 548V513.091H156.523V548H151.159ZM153.886 507.273C152.841 507.273 151.939 506.917 151.182 506.205C150.439 505.492 150.068 504.636 150.068 503.636C150.068 502.636 150.439 501.78 151.182 501.068C151.939 500.356 152.841 500 153.886 500C154.932 500 155.826 500.356 156.568 501.068C157.326 501.78 157.705 502.636 157.705 503.636C157.705 504.636 157.326 505.492 156.568 506.205C155.826 506.917 154.932 507.273 153.886 507.273ZM176.619 548.818C174.407 548.818 172.4 548.402 170.597 547.568C168.794 546.72 167.362 545.5 166.301 543.909C165.241 542.303 164.71 540.364 164.71 538.091C164.71 536.091 165.104 534.47 165.892 533.227C166.68 531.97 167.733 530.985 169.051 530.273C170.369 529.561 171.824 529.03 173.415 528.682C175.021 528.318 176.634 528.03 178.256 527.818C180.377 527.545 182.097 527.341 183.415 527.205C184.748 527.053 185.718 526.803 186.324 526.455C186.945 526.106 187.256 525.5 187.256 524.636V524.455C187.256 522.212 186.642 520.47 185.415 519.227C184.203 517.985 182.362 517.364 179.892 517.364C177.331 517.364 175.324 517.924 173.869 519.045C172.415 520.167 171.392 521.364 170.801 522.636L165.71 520.818C166.619 518.697 167.831 517.045 169.347 515.864C170.877 514.667 172.544 513.833 174.347 513.364C176.165 512.879 177.953 512.636 179.71 512.636C180.831 512.636 182.119 512.773 183.574 513.045C185.044 513.303 186.46 513.841 187.824 514.659C189.203 515.477 190.347 516.712 191.256 518.364C192.165 520.015 192.619 522.227 192.619 525V548H187.256V543.273H186.983C186.619 544.03 186.013 544.841 185.165 545.705C184.316 546.568 183.188 547.303 181.778 547.909C180.369 548.515 178.65 548.818 176.619 548.818ZM177.438 544C179.559 544 181.347 543.583 182.801 542.75C184.271 541.917 185.377 540.841 186.119 539.523C186.877 538.205 187.256 536.818 187.256 535.364V530.455C187.028 530.727 186.528 530.977 185.756 531.205C184.998 531.417 184.119 531.606 183.119 531.773C182.134 531.924 181.172 532.061 180.233 532.182C179.309 532.288 178.559 532.379 177.983 532.455C176.589 532.636 175.286 532.932 174.074 533.341C172.877 533.735 171.907 534.333 171.165 535.136C170.438 535.924 170.074 537 170.074 538.364C170.074 540.227 170.763 541.636 172.142 542.591C173.536 543.53 175.301 544 177.438 544ZM207.773 501.455V548H202.409V501.455H207.773ZM232.233 548.727C228.869 548.727 225.968 547.985 223.528 546.5C221.104 545 219.233 542.909 217.915 540.227C216.612 537.53 215.96 534.394 215.96 530.818C215.96 527.242 216.612 524.091 217.915 521.364C219.233 518.621 221.066 516.485 223.415 514.955C225.778 513.409 228.536 512.636 231.688 512.636C233.506 512.636 235.301 512.939 237.074 513.545C238.847 514.152 240.46 515.136 241.915 516.5C243.369 517.848 244.528 519.636 245.392 521.864C246.256 524.091 246.688 526.833 246.688 530.091V532.364H219.778V527.727H241.233C241.233 525.758 240.839 524 240.051 522.455C239.278 520.909 238.172 519.689 236.733 518.795C235.309 517.902 233.627 517.455 231.688 517.455C229.551 517.455 227.703 517.985 226.142 519.045C224.597 520.091 223.407 521.455 222.574 523.136C221.741 524.818 221.324 526.621 221.324 528.545V531.636C221.324 534.273 221.778 536.508 222.688 538.341C223.612 540.159 224.892 541.545 226.528 542.5C228.165 543.439 230.066 543.909 232.233 543.909C233.642 543.909 234.915 543.712 236.051 543.318C237.203 542.909 238.195 542.303 239.028 541.5C239.862 540.682 240.506 539.667 240.96 538.455L246.142 539.909C245.597 541.667 244.68 543.212 243.392 544.545C242.104 545.864 240.513 546.894 238.619 547.636C236.725 548.364 234.597 548.727 232.233 548.727ZM294.847 533.727V513.091H300.21V548H294.847V542.091H294.483C293.665 543.864 292.392 545.371 290.665 546.614C288.938 547.841 286.756 548.455 284.119 548.455C281.938 548.455 279.998 547.977 278.301 547.023C276.604 546.053 275.271 544.598 274.301 542.659C273.331 540.705 272.847 538.242 272.847 535.273V513.091H278.21V534.909C278.21 537.455 278.922 539.485 280.347 541C281.786 542.515 283.619 543.273 285.847 543.273C287.18 543.273 288.536 542.932 289.915 542.25C291.309 541.568 292.475 540.523 293.415 539.114C294.369 537.705 294.847 535.909 294.847 533.727ZM315.398 527V548H310.034V513.091H315.216V518.545H315.67C316.489 516.773 317.731 515.348 319.398 514.273C321.064 513.182 323.216 512.636 325.852 512.636C328.216 512.636 330.284 513.121 332.057 514.091C333.83 515.045 335.208 516.5 336.193 518.455C337.178 520.394 337.67 522.848 337.67 525.818V548H332.307V526.182C332.307 523.439 331.595 521.303 330.17 519.773C328.746 518.227 326.792 517.455 324.307 517.455C322.595 517.455 321.064 517.826 319.716 518.568C318.383 519.311 317.33 520.394 316.557 521.818C315.784 523.242 315.398 524.97 315.398 527ZM360.653 548.727C357.744 548.727 355.176 547.992 352.949 546.523C350.722 545.038 348.979 542.947 347.722 540.25C346.464 537.538 345.835 534.333 345.835 530.636C345.835 526.97 346.464 523.788 347.722 521.091C348.979 518.394 350.729 516.311 352.972 514.841C355.214 513.371 357.805 512.636 360.744 512.636C363.017 512.636 364.813 513.015 366.131 513.773C367.464 514.515 368.479 515.364 369.176 516.318C369.888 517.258 370.441 518.03 370.835 518.636H371.29V501.455H376.653V548H371.472V542.636H370.835C370.441 543.273 369.881 544.076 369.153 545.045C368.426 546 367.388 546.856 366.04 547.614C364.691 548.356 362.896 548.727 360.653 548.727ZM361.381 543.909C363.532 543.909 365.35 543.348 366.835 542.227C368.32 541.091 369.449 539.523 370.222 537.523C370.994 535.508 371.381 533.182 371.381 530.545C371.381 527.939 371.002 525.659 370.244 523.705C369.487 521.735 368.366 520.205 366.881 519.114C365.396 518.008 363.563 517.455 361.381 517.455C359.108 517.455 357.214 518.038 355.699 519.205C354.199 520.356 353.07 521.924 352.312 523.909C351.57 525.879 351.199 528.091 351.199 530.545C351.199 533.03 351.578 535.288 352.335 537.318C353.108 539.333 354.244 540.939 355.744 542.136C357.259 543.318 359.138 543.909 361.381 543.909ZM405.222 561.091V513.091H410.403V518.636H411.04C411.434 518.03 411.979 517.258 412.676 516.318C413.388 515.364 414.403 514.515 415.722 513.773C417.055 513.015 418.858 512.636 421.131 512.636C424.07 512.636 426.661 513.371 428.903 514.841C431.146 516.311 432.896 518.394 434.153 521.091C435.411 523.788 436.04 526.97 436.04 530.636C436.04 534.333 435.411 537.538 434.153 540.25C432.896 542.947 431.153 545.038 428.926 546.523C426.699 547.992 424.131 548.727 421.222 548.727C418.979 548.727 417.184 548.356 415.835 547.614C414.487 546.856 413.449 546 412.722 545.045C411.994 544.076 411.434 543.273 411.04 542.636H410.585V561.091H405.222ZM410.494 530.545C410.494 533.182 410.881 535.508 411.653 537.523C412.426 539.523 413.555 541.091 415.04 542.227C416.525 543.348 418.343 543.909 420.494 543.909C422.737 543.909 424.608 543.318 426.108 542.136C427.623 540.939 428.759 539.333 429.517 537.318C430.29 535.288 430.676 533.03 430.676 530.545C430.676 528.091 430.297 525.879 429.54 523.909C428.797 521.924 427.669 520.356 426.153 519.205C424.653 518.038 422.767 517.455 420.494 517.455C418.313 517.455 416.479 518.008 414.994 519.114C413.509 520.205 412.388 521.735 411.631 523.705C410.873 525.659 410.494 527.939 410.494 530.545ZM458.858 548.727C455.494 548.727 452.593 547.985 450.153 546.5C447.729 545 445.858 542.909 444.54 540.227C443.237 537.53 442.585 534.394 442.585 530.818C442.585 527.242 443.237 524.091 444.54 521.364C445.858 518.621 447.691 516.485 450.04 514.955C452.403 513.409 455.161 512.636 458.312 512.636C460.131 512.636 461.926 512.939 463.699 513.545C465.472 514.152 467.085 515.136 468.54 516.5C469.994 517.848 471.153 519.636 472.017 521.864C472.881 524.091 473.312 526.833 473.312 530.091V532.364H446.403V527.727H467.858C467.858 525.758 467.464 524 466.676 522.455C465.903 520.909 464.797 519.689 463.358 518.795C461.934 517.902 460.252 517.455 458.312 517.455C456.176 517.455 454.328 517.985 452.767 519.045C451.222 520.091 450.032 521.455 449.199 523.136C448.366 524.818 447.949 526.621 447.949 528.545V531.636C447.949 534.273 448.403 536.508 449.312 538.341C450.237 540.159 451.517 541.545 453.153 542.5C454.79 543.439 456.691 543.909 458.858 543.909C460.267 543.909 461.54 543.712 462.676 543.318C463.828 542.909 464.82 542.303 465.653 541.5C466.487 540.682 467.131 539.667 467.585 538.455L472.767 539.909C472.222 541.667 471.305 543.212 470.017 544.545C468.729 545.864 467.138 546.894 465.244 547.636C463.35 548.364 461.222 548.727 458.858 548.727ZM481.472 548V513.091H486.653V518.364H487.017C487.653 516.636 488.805 515.235 490.472 514.159C492.138 513.083 494.017 512.545 496.108 512.545C496.502 512.545 496.994 512.553 497.585 512.568C498.176 512.583 498.623 512.606 498.926 512.636V518.091C498.744 518.045 498.328 517.977 497.676 517.886C497.04 517.78 496.366 517.727 495.653 517.727C493.956 517.727 492.441 518.083 491.108 518.795C489.79 519.492 488.744 520.462 487.972 521.705C487.214 522.932 486.835 524.333 486.835 525.909V548H481.472ZM530.011 520.909L525.193 522.273C524.89 521.47 524.443 520.689 523.852 519.932C523.277 519.159 522.489 518.523 521.489 518.023C520.489 517.523 519.208 517.273 517.648 517.273C515.511 517.273 513.731 517.765 512.307 518.75C510.898 519.72 510.193 520.955 510.193 522.455C510.193 523.788 510.678 524.841 511.648 525.614C512.617 526.386 514.133 527.03 516.193 527.545L521.375 528.818C524.496 529.576 526.822 530.735 528.352 532.295C529.883 533.841 530.648 535.833 530.648 538.273C530.648 540.273 530.072 542.061 528.92 543.636C527.784 545.212 526.193 546.455 524.148 547.364C522.102 548.273 519.723 548.727 517.011 548.727C513.451 548.727 510.504 547.955 508.17 546.409C505.837 544.864 504.36 542.606 503.739 539.636L508.83 538.364C509.314 540.242 510.231 541.652 511.58 542.591C512.943 543.53 514.723 544 516.92 544C519.42 544 521.405 543.47 522.875 542.409C524.36 541.333 525.102 540.045 525.102 538.545C525.102 537.333 524.678 536.318 523.83 535.5C522.981 534.667 521.678 534.045 519.92 533.636L514.102 532.273C510.905 531.515 508.557 530.341 507.057 528.75C505.572 527.144 504.83 525.136 504.83 522.727C504.83 520.758 505.383 519.015 506.489 517.5C507.61 515.985 509.133 514.795 511.057 513.932C512.996 513.068 515.193 512.636 517.648 512.636C521.102 512.636 523.814 513.394 525.784 514.909C527.769 516.424 529.178 518.424 530.011 520.909ZM552.903 548.727C549.752 548.727 546.987 547.977 544.608 546.477C542.244 544.977 540.396 542.879 539.062 540.182C537.744 537.485 537.085 534.333 537.085 530.727C537.085 527.091 537.744 523.917 539.062 521.205C540.396 518.492 542.244 516.386 544.608 514.886C546.987 513.386 549.752 512.636 552.903 512.636C556.055 512.636 558.813 513.386 561.176 514.886C563.555 516.386 565.403 518.492 566.722 521.205C568.055 523.917 568.722 527.091 568.722 530.727C568.722 534.333 568.055 537.485 566.722 540.182C565.403 542.879 563.555 544.977 561.176 546.477C558.813 547.977 556.055 548.727 552.903 548.727ZM552.903 543.909C555.297 543.909 557.267 543.295 558.812 542.068C560.358 540.841 561.502 539.227 562.244 537.227C562.987 535.227 563.358 533.061 563.358 530.727C563.358 528.394 562.987 526.22 562.244 524.205C561.502 522.189 560.358 520.561 558.812 519.318C557.267 518.076 555.297 517.455 552.903 517.455C550.509 517.455 548.54 518.076 546.994 519.318C545.449 520.561 544.305 522.189 543.562 524.205C542.82 526.22 542.449 528.394 542.449 530.727C542.449 533.061 542.82 535.227 543.562 537.227C544.305 539.227 545.449 540.841 546.994 542.068C548.54 543.295 550.509 543.909 552.903 543.909ZM582.273 527V548H576.909V513.091H582.091V518.545H582.545C583.364 516.773 584.606 515.348 586.273 514.273C587.939 513.182 590.091 512.636 592.727 512.636C595.091 512.636 597.159 513.121 598.932 514.091C600.705 515.045 602.083 516.5 603.068 518.455C604.053 520.394 604.545 522.848 604.545 525.818V548H599.182V526.182C599.182 523.439 598.47 521.303 597.045 519.773C595.621 518.227 593.667 517.455 591.182 517.455C589.47 517.455 587.939 517.826 586.591 518.568C585.258 519.311 584.205 520.394 583.432 521.818C582.659 523.242 582.273 524.97 582.273 527ZM628.983 548.727C625.619 548.727 622.718 547.985 620.278 546.5C617.854 545 615.983 542.909 614.665 540.227C613.362 537.53 612.71 534.394 612.71 530.818C612.71 527.242 613.362 524.091 614.665 521.364C615.983 518.621 617.816 516.485 620.165 514.955C622.528 513.409 625.286 512.636 628.438 512.636C630.256 512.636 632.051 512.939 633.824 513.545C635.597 514.152 637.21 515.136 638.665 516.5C640.119 517.848 641.278 519.636 642.142 521.864C643.006 524.091 643.438 526.833 643.438 530.091V532.364H616.528V527.727H637.983C637.983 525.758 637.589 524 636.801 522.455C636.028 520.909 634.922 519.689 633.483 518.795C632.059 517.902 630.377 517.455 628.438 517.455C626.301 517.455 624.453 517.985 622.892 519.045C621.347 520.091 620.157 521.455 619.324 523.136C618.491 524.818 618.074 526.621 618.074 528.545V531.636C618.074 534.273 618.528 536.508 619.438 538.341C620.362 540.159 621.642 541.545 623.278 542.5C624.915 543.439 626.816 543.909 628.983 543.909C630.392 543.909 631.665 543.712 632.801 543.318C633.953 542.909 634.945 542.303 635.778 541.5C636.612 540.682 637.256 539.667 637.71 538.455L642.892 539.909C642.347 541.667 641.43 543.212 640.142 544.545C638.854 545.864 637.263 546.894 635.369 547.636C633.475 548.364 631.347 548.727 628.983 548.727ZM656.96 501.455V548H651.597V501.455H656.96ZM672.148 501.455V548H666.784V501.455H672.148ZM696.608 548.727C693.244 548.727 690.343 547.985 687.903 546.5C685.479 545 683.608 542.909 682.29 540.227C680.987 537.53 680.335 534.394 680.335 530.818C680.335 527.242 680.987 524.091 682.29 521.364C683.608 518.621 685.441 516.485 687.79 514.955C690.153 513.409 692.911 512.636 696.062 512.636C697.881 512.636 699.676 512.939 701.449 513.545C703.222 514.152 704.835 515.136 706.29 516.5C707.744 517.848 708.903 519.636 709.767 521.864C710.631 524.091 711.062 526.833 711.062 530.091V532.364H684.153V527.727H705.608C705.608 525.758 705.214 524 704.426 522.455C703.653 520.909 702.547 519.689 701.108 518.795C699.684 517.902 698.002 517.455 696.062 517.455C693.926 517.455 692.078 517.985 690.517 519.045C688.972 520.091 687.782 521.455 686.949 523.136C686.116 524.818 685.699 526.621 685.699 528.545V531.636C685.699 534.273 686.153 536.508 687.062 538.341C687.987 540.159 689.267 541.545 690.903 542.5C692.54 543.439 694.441 543.909 696.608 543.909C698.017 543.909 699.29 543.712 700.426 543.318C701.578 542.909 702.57 542.303 703.403 541.5C704.237 540.682 704.881 539.667 705.335 538.455L710.517 539.909C709.972 541.667 709.055 543.212 707.767 544.545C706.479 545.864 704.888 546.894 702.994 547.636C701.1 548.364 698.972 548.727 696.608 548.727ZM739.858 548H733.949L751.04 501.455H756.858L773.949 548H768.04L754.131 508.818H753.767L739.858 548ZM742.04 529.818H765.858V534.818H742.04V529.818ZM785.835 527V548H780.472V513.091H785.653V518.545H786.108C786.926 516.773 788.169 515.348 789.835 514.273C791.502 513.182 793.653 512.636 796.29 512.636C798.653 512.636 800.722 513.121 802.494 514.091C804.267 515.045 805.646 516.5 806.631 518.455C807.616 520.394 808.108 522.848 808.108 525.818V548H802.744V526.182C802.744 523.439 802.032 521.303 800.608 519.773C799.184 518.227 797.229 517.455 794.744 517.455C793.032 517.455 791.502 517.826 790.153 518.568C788.82 519.311 787.767 520.394 786.994 521.818C786.222 523.242 785.835 524.97 785.835 527ZM832 561.818C829.409 561.818 827.182 561.485 825.318 560.818C823.455 560.167 821.902 559.303 820.659 558.227C819.432 557.167 818.455 556.03 817.727 554.818L822 551.818C822.485 552.455 823.098 553.182 823.841 554C824.583 554.833 825.598 555.553 826.886 556.159C828.189 556.78 829.894 557.091 832 557.091C834.818 557.091 837.144 556.409 838.977 555.045C840.811 553.682 841.727 551.545 841.727 548.636V541.545H841.273C840.879 542.182 840.318 542.97 839.591 543.909C838.879 544.833 837.848 545.659 836.5 546.386C835.167 547.098 833.364 547.455 831.091 547.455C828.273 547.455 825.742 546.788 823.5 545.455C821.273 544.121 819.508 542.182 818.205 539.636C816.917 537.091 816.273 534 816.273 530.364C816.273 526.788 816.902 523.674 818.159 521.023C819.417 518.356 821.167 516.295 823.409 514.841C825.652 513.371 828.242 512.636 831.182 512.636C833.455 512.636 835.258 513.015 836.591 513.773C837.939 514.515 838.97 515.364 839.682 516.318C840.409 517.258 840.97 518.03 841.364 518.636H841.909V513.091H847.091V549C847.091 552 846.409 554.439 845.045 556.318C843.697 558.212 841.879 559.598 839.591 560.477C837.318 561.371 834.788 561.818 832 561.818ZM831.818 542.636C833.97 542.636 835.788 542.144 837.273 541.159C838.758 540.174 839.886 538.758 840.659 536.909C841.432 535.061 841.818 532.848 841.818 530.273C841.818 527.758 841.439 525.538 840.682 523.614C839.924 521.689 838.803 520.182 837.318 519.091C835.833 518 834 517.455 831.818 517.455C829.545 517.455 827.652 518.03 826.136 519.182C824.636 520.333 823.508 521.879 822.75 523.818C822.008 525.758 821.636 527.909 821.636 530.273C821.636 532.697 822.015 534.841 822.773 536.705C823.545 538.553 824.682 540.008 826.182 541.068C827.697 542.114 829.576 542.636 831.818 542.636ZM871.545 548.727C868.182 548.727 865.28 547.985 862.841 546.5C860.417 545 858.545 542.909 857.227 540.227C855.924 537.53 855.273 534.394 855.273 530.818C855.273 527.242 855.924 524.091 857.227 521.364C858.545 518.621 860.379 516.485 862.727 514.955C865.091 513.409 867.848 512.636 871 512.636C872.818 512.636 874.614 512.939 876.386 513.545C878.159 514.152 879.773 515.136 881.227 516.5C882.682 517.848 883.841 519.636 884.705 521.864C885.568 524.091 886 526.833 886 530.091V532.364H859.091V527.727H880.545C880.545 525.758 880.152 524 879.364 522.455C878.591 520.909 877.485 519.689 876.045 518.795C874.621 517.902 872.939 517.455 871 517.455C868.864 517.455 867.015 517.985 865.455 519.045C863.909 520.091 862.72 521.455 861.886 523.136C861.053 524.818 860.636 526.621 860.636 528.545V531.636C860.636 534.273 861.091 536.508 862 538.341C862.924 540.159 864.205 541.545 865.841 542.5C867.477 543.439 869.379 543.909 871.545 543.909C872.955 543.909 874.227 543.712 875.364 543.318C876.515 542.909 877.508 542.303 878.341 541.5C879.174 540.682 879.818 539.667 880.273 538.455L885.455 539.909C884.909 541.667 883.992 543.212 882.705 544.545C881.417 545.864 879.826 546.894 877.932 547.636C876.038 548.364 873.909 548.727 871.545 548.727ZM899.523 501.455V548H894.159V501.455H899.523ZM923.983 548.727C920.619 548.727 917.718 547.985 915.278 546.5C912.854 545 910.983 542.909 909.665 540.227C908.362 537.53 907.71 534.394 907.71 530.818C907.71 527.242 908.362 524.091 909.665 521.364C910.983 518.621 912.816 516.485 915.165 514.955C917.528 513.409 920.286 512.636 923.438 512.636C925.256 512.636 927.051 512.939 928.824 513.545C930.597 514.152 932.21 515.136 933.665 516.5C935.119 517.848 936.278 519.636 937.142 521.864C938.006 524.091 938.438 526.833 938.438 530.091V532.364H911.528V527.727H932.983C932.983 525.758 932.589 524 931.801 522.455C931.028 520.909 929.922 519.689 928.483 518.795C927.059 517.902 925.377 517.455 923.438 517.455C921.301 517.455 919.453 517.985 917.892 519.045C916.347 520.091 915.157 521.455 914.324 523.136C913.491 524.818 913.074 526.621 913.074 528.545V531.636C913.074 534.273 913.528 536.508 914.438 538.341C915.362 540.159 916.642 541.545 918.278 542.5C919.915 543.439 921.816 543.909 923.983 543.909C925.392 543.909 926.665 543.712 927.801 543.318C928.953 542.909 929.945 542.303 930.778 541.5C931.612 540.682 932.256 539.667 932.71 538.455L937.892 539.909C937.347 541.667 936.43 543.212 935.142 544.545C933.854 545.864 932.263 546.894 930.369 547.636C928.475 548.364 926.347 548.727 923.983 548.727ZM960.688 561.818C958.097 561.818 955.869 561.485 954.006 560.818C952.142 560.167 950.589 559.303 949.347 558.227C948.119 557.167 947.142 556.03 946.415 554.818L950.688 551.818C951.172 552.455 951.786 553.182 952.528 554C953.271 554.833 954.286 555.553 955.574 556.159C956.877 556.78 958.581 557.091 960.688 557.091C963.506 557.091 965.831 556.409 967.665 555.045C969.498 553.682 970.415 551.545 970.415 548.636V541.545H969.96C969.566 542.182 969.006 542.97 968.278 543.909C967.566 544.833 966.536 545.659 965.188 546.386C963.854 547.098 962.051 547.455 959.778 547.455C956.96 547.455 954.43 546.788 952.188 545.455C949.96 544.121 948.195 542.182 946.892 539.636C945.604 537.091 944.96 534 944.96 530.364C944.96 526.788 945.589 523.674 946.847 521.023C948.104 518.356 949.854 516.295 952.097 514.841C954.339 513.371 956.93 512.636 959.869 512.636C962.142 512.636 963.945 513.015 965.278 513.773C966.627 514.515 967.657 515.364 968.369 516.318C969.097 517.258 969.657 518.03 970.051 518.636H970.597V513.091H975.778V549C975.778 552 975.097 554.439 973.733 556.318C972.384 558.212 970.566 559.598 968.278 560.477C966.006 561.371 963.475 561.818 960.688 561.818ZM960.506 542.636C962.657 542.636 964.475 542.144 965.96 541.159C967.445 540.174 968.574 538.758 969.347 536.909C970.119 535.061 970.506 532.848 970.506 530.273C970.506 527.758 970.127 525.538 969.369 523.614C968.612 521.689 967.491 520.182 966.006 519.091C964.521 518 962.688 517.455 960.506 517.455C958.233 517.455 956.339 518.03 954.824 519.182C953.324 520.333 952.195 521.879 951.438 523.818C950.695 525.758 950.324 527.909 950.324 530.273C950.324 532.697 950.703 534.841 951.46 536.705C952.233 538.553 953.369 540.008 954.869 541.068C956.384 542.114 958.263 542.636 960.506 542.636ZM1000.23 548.727C996.869 548.727 993.968 547.985 991.528 546.5C989.104 545 987.233 542.909 985.915 540.227C984.612 537.53 983.96 534.394 983.96 530.818C983.96 527.242 984.612 524.091 985.915 521.364C987.233 518.621 989.066 516.485 991.415 514.955C993.778 513.409 996.536 512.636 999.688 512.636C1001.51 512.636 1003.3 512.939 1005.07 513.545C1006.85 514.152 1008.46 515.136 1009.91 516.5C1011.37 517.848 1012.53 519.636 1013.39 521.864C1014.26 524.091 1014.69 526.833 1014.69 530.091V532.364H987.778V527.727H1009.23C1009.23 525.758 1008.84 524 1008.05 522.455C1007.28 520.909 1006.17 519.689 1004.73 518.795C1003.31 517.902 1001.63 517.455 999.688 517.455C997.551 517.455 995.703 517.985 994.142 519.045C992.597 520.091 991.407 521.455 990.574 523.136C989.741 524.818 989.324 526.621 989.324 528.545V531.636C989.324 534.273 989.778 536.508 990.688 538.341C991.612 540.159 992.892 541.545 994.528 542.5C996.165 543.439 998.066 543.909 1000.23 543.909C1001.64 543.909 1002.91 543.712 1004.05 543.318C1005.2 542.909 1006.2 542.303 1007.03 541.5C1007.86 540.682 1008.51 539.667 1008.96 538.455L1014.14 539.909C1013.6 541.667 1012.68 543.212 1011.39 544.545C1010.1 545.864 1008.51 546.894 1006.62 547.636C1004.73 548.364 1002.6 548.727 1000.23 548.727ZM1028.21 527V548H1022.85V513.091H1028.03V518.545H1028.48C1029.3 516.773 1030.54 515.348 1032.21 514.273C1033.88 513.182 1036.03 512.636 1038.66 512.636C1041.03 512.636 1043.1 513.121 1044.87 514.091C1046.64 515.045 1048.02 516.5 1049.01 518.455C1049.99 520.394 1050.48 522.848 1050.48 525.818V548H1045.12V526.182C1045.12 523.439 1044.41 521.303 1042.98 519.773C1041.56 518.227 1039.6 517.455 1037.12 517.455C1035.41 517.455 1033.88 517.826 1032.53 518.568C1031.2 519.311 1030.14 520.394 1029.37 521.818C1028.6 523.242 1028.21 524.97 1028.21 527ZM1065.65 527V548H1060.28V501.455H1065.65V518.545H1066.1C1066.92 516.742 1068.15 515.311 1069.78 514.25C1071.44 513.174 1073.63 512.636 1076.38 512.636C1078.75 512.636 1080.84 513.114 1082.62 514.068C1084.41 515.008 1085.8 516.455 1086.78 518.409C1087.78 520.348 1088.28 522.818 1088.28 525.818V548H1082.92V526.182C1082.92 523.409 1082.2 521.265 1080.76 519.75C1079.34 518.22 1077.36 517.455 1074.83 517.455C1073.07 517.455 1071.5 517.826 1070.1 518.568C1068.72 519.311 1067.63 520.394 1066.83 521.818C1066.04 523.242 1065.65 524.97 1065.65 527ZM1112.73 548.727C1109.37 548.727 1106.47 547.985 1104.03 546.5C1101.6 545 1099.73 542.909 1098.41 540.227C1097.11 537.53 1096.46 534.394 1096.46 530.818C1096.46 527.242 1097.11 524.091 1098.41 521.364C1099.73 518.621 1101.57 516.485 1103.91 514.955C1106.28 513.409 1109.04 512.636 1112.19 512.636C1114.01 512.636 1115.8 512.939 1117.57 513.545C1119.35 514.152 1120.96 515.136 1122.41 516.5C1123.87 517.848 1125.03 519.636 1125.89 521.864C1126.76 524.091 1127.19 526.833 1127.19 530.091V532.364H1100.28V527.727H1121.73C1121.73 525.758 1121.34 524 1120.55 522.455C1119.78 520.909 1118.67 519.689 1117.23 518.795C1115.81 517.902 1114.13 517.455 1112.19 517.455C1110.05 517.455 1108.2 517.985 1106.64 519.045C1105.1 520.091 1103.91 521.455 1103.07 523.136C1102.24 524.818 1101.82 526.621 1101.82 528.545V531.636C1101.82 534.273 1102.28 536.508 1103.19 538.341C1104.11 540.159 1105.39 541.545 1107.03 542.5C1108.66 543.439 1110.57 543.909 1112.73 543.909C1114.14 543.909 1115.41 543.712 1116.55 543.318C1117.7 542.909 1118.7 542.303 1119.53 541.5C1120.36 540.682 1121.01 539.667 1121.46 538.455L1126.64 539.909C1126.1 541.667 1125.18 543.212 1123.89 544.545C1122.6 545.864 1121.01 546.894 1119.12 547.636C1117.23 548.364 1115.1 548.727 1112.73 548.727ZM1135.35 548V513.091H1140.71V548H1135.35ZM1138.07 507.273C1137.03 507.273 1136.13 506.917 1135.37 506.205C1134.63 505.492 1134.26 504.636 1134.26 503.636C1134.26 502.636 1134.63 501.78 1135.37 501.068C1136.13 500.356 1137.03 500 1138.07 500C1139.12 500 1140.01 500.356 1140.76 501.068C1141.51 501.78 1141.89 502.636 1141.89 503.636C1141.89 504.636 1141.51 505.492 1140.76 506.205C1140.01 506.917 1139.12 507.273 1138.07 507.273ZM1165.72 513.091V517.636H1147.62V513.091H1165.72ZM1152.9 504.727H1158.26V538C1158.26 539.515 1158.48 540.652 1158.92 541.409C1159.38 542.152 1159.95 542.652 1160.65 542.909C1161.36 543.152 1162.11 543.273 1162.9 543.273C1163.49 543.273 1163.97 543.242 1164.35 543.182C1164.73 543.106 1165.03 543.045 1165.26 543L1166.35 547.818C1165.99 547.955 1165.48 548.091 1164.83 548.227C1164.18 548.379 1163.35 548.455 1162.35 548.455C1160.84 548.455 1159.35 548.129 1157.9 547.477C1156.46 546.826 1155.26 545.833 1154.31 544.5C1153.37 543.167 1152.9 541.485 1152.9 539.455V504.727ZM1188.05 548.727C1184.68 548.727 1181.78 547.985 1179.34 546.5C1176.92 545 1175.05 542.909 1173.73 540.227C1172.42 537.53 1171.77 534.394 1171.77 530.818C1171.77 527.242 1172.42 524.091 1173.73 521.364C1175.05 518.621 1176.88 516.485 1179.23 514.955C1181.59 513.409 1184.35 512.636 1187.5 512.636C1189.32 512.636 1191.11 512.939 1192.89 513.545C1194.66 514.152 1196.27 515.136 1197.73 516.5C1199.18 517.848 1200.34 519.636 1201.2 521.864C1202.07 524.091 1202.5 526.833 1202.5 530.091V532.364H1175.59V527.727H1197.05C1197.05 525.758 1196.65 524 1195.86 522.455C1195.09 520.909 1193.98 519.689 1192.55 518.795C1191.12 517.902 1189.44 517.455 1187.5 517.455C1185.36 517.455 1183.52 517.985 1181.95 519.045C1180.41 520.091 1179.22 521.455 1178.39 523.136C1177.55 524.818 1177.14 526.621 1177.14 528.545V531.636C1177.14 534.273 1177.59 536.508 1178.5 538.341C1179.42 540.159 1180.7 541.545 1182.34 542.5C1183.98 543.439 1185.88 543.909 1188.05 543.909C1189.45 543.909 1190.73 543.712 1191.86 543.318C1193.02 542.909 1194.01 542.303 1194.84 541.5C1195.67 540.682 1196.32 539.667 1196.77 538.455L1201.95 539.909C1201.41 541.667 1200.49 543.212 1199.2 544.545C1197.92 545.864 1196.33 546.894 1194.43 547.636C1192.54 548.364 1190.41 548.727 1188.05 548.727ZM1216.02 527V548H1210.66V513.091H1215.84V518.545H1216.3C1217.11 516.773 1218.36 515.348 1220.02 514.273C1221.69 513.182 1223.84 512.636 1226.48 512.636C1228.84 512.636 1230.91 513.121 1232.68 514.091C1234.45 515.045 1235.83 516.5 1236.82 518.455C1237.8 520.394 1238.3 522.848 1238.3 525.818V548H1232.93V526.182C1232.93 523.439 1232.22 521.303 1230.8 519.773C1229.37 518.227 1227.42 517.455 1224.93 517.455C1223.22 517.455 1221.69 517.826 1220.34 518.568C1219.01 519.311 1217.95 520.394 1217.18 521.818C1216.41 523.242 1216.02 524.97 1216.02 527Z" fill="white"/>
<path d="M648 220C648 216.686 645.314 214 642 214C638.686 214 636 216.686 636 220L648 220ZM642 393L676.641 333L607.359 333L642 393ZM636 220L636 339L648 339L648 220L636 220Z" fill="#BB403E"/>
<path d="M642 657L607.359 717L676.641 717L642 657ZM636 830C636 833.314 638.686 836 642 836C645.314 836 648 833.314 648 830L636 830ZM636 711L636 830L648 830L648 711L636 711Z" fill="#9EC8B9"/>
</svg>
